<?xml version="1.0" standalone="no"?>
<!DOCTYPE svg PUBLIC "-//W3C//DTD SVG 20010904//EN"
 "http://www.w3.org/TR/2001/REC-SVG-20010904/DTD/svg10.dtd">
<svg version="1.0" xmlns="http://www.w3.org/2000/svg"
 width="252.000000pt" height="200.000000pt" viewBox="0 0 252.000000 200.000000"
 preserveAspectRatio="xMidYMid meet">

<g transform="translate(0.000000,200.000000) scale(0.100000,-0.100000)"
fill="#000000" stroke="none">
<path d="M0 1000 l0 -1000 1260 0 1260 0 0 1000 0 1000 -1260 0 -1260 0 0
-1000z m878 417 c62 -27 84 -44 148 -114 48 -53 73 -87 68 -95 -4 -7 4 -3 18
10 31 28 79 29 129 0 l38 -21 42 29 c23 16 58 48 78 72 39 46 98 89 119 84 6
-2 12 1 12 5 0 9 6 9 123 17 42 3 82 8 87 11 6 3 10 2 10 -2 0 -15 -39 -33
-57 -26 -14 5 -15 3 -7 -7 7 -6 23 -13 37 -13 19 -2 23 -5 15 -15 -6 -7 -20
-10 -32 -7 -17 5 -18 4 -6 -5 12 -9 9 -10 -13 -5 -19 4 -26 2 -22 -5 3 -5 18
-10 31 -10 16 0 24 -5 21 -12 -2 -8 -19 -12 -43 -11 -39 2 -39 2 -9 -8 17 -6
39 -11 49 -10 15 0 16 -3 7 -12 -7 -7 -38 -11 -79 -10 -49 1 -61 -1 -44 -7 12
-5 30 -6 39 -3 11 4 14 3 9 -5 -4 -7 -3 -12 2 -12 6 0 13 -7 16 -16 5 -14 1
-16 -28 -11 -33 5 -34 5 -18 -12 9 -10 24 -15 32 -13 12 4 12 2 3 -8 -6 -7
-32 -15 -57 -17 -25 -3 -46 -10 -46 -15 0 -5 6 -6 13 -3 6 4 -4 -7 -23 -24
-19 -17 -40 -31 -47 -31 -7 0 -13 -4 -13 -10 0 -5 -9 -10 -20 -10 -11 0 -20
-4 -20 -10 0 -17 -38 -11 -50 8 -9 14 -11 13 -7 -11 4 -26 2 -27 -24 -23 -22
3 -26 1 -22 -12 5 -11 2 -13 -8 -8 -8 4 -5 0 6 -8 57 -46 58 -48 44 -57 -11
-7 -10 -9 5 -9 15 0 16 -3 6 -15 -7 -8 -17 -15 -22 -15 -14 0 -38 -27 -31 -34
3 -3 1 -12 -6 -20 -9 -11 -9 -15 1 -19 24 -9 -46 -29 -82 -23 -25 4 -31 3 -20
-5 10 -7 -8 -8 -60 -3 -41 4 -76 8 -78 9 -2 2 1 13 8 24 6 12 8 21 6 21 -3 0
-12 -12 -20 -27 -9 -16 -15 -21 -16 -13 0 13 -1 13 -10 0 -6 -10 -7 -3 -3 24
4 24 2 37 -3 33 -6 -3 -8 19 -6 56 5 80 -8 111 -55 136 -31 17 -32 26 -2 23 3
-1 6 6 6 14 0 7 -4 14 -9 14 -4 0 -8 -4 -8 -10 0 -5 -10 -10 -22 -10 -19 0
-20 2 -8 10 12 8 10 10 -10 11 -14 0 -19 3 -12 6 9 3 -1 14 -27 30 -23 13 -39
29 -35 34 3 6 -4 7 -19 4 -20 -5 -27 -2 -32 14 -3 11 -9 20 -13 19 -10 -2 -62
20 -62 26 0 3 8 2 18 -1 14 -6 15 -4 5 9 -7 8 -10 18 -6 22 4 4 0 4 -9 1 -9
-4 -19 -1 -24 6 -4 8 -3 10 4 5 7 -4 12 -5 12 -2 0 2 3 12 6 20 4 12 2 15 -9
10 -8 -3 -18 0 -23 7 -4 8 -3 10 4 5 7 -4 12 -2 12 3 0 6 12 12 28 12 l27 2
-27 4 c-16 2 -28 9 -28 15 0 6 -8 21 -17 32 -10 12 -14 18 -10 14 5 -3 21 -3
37 2 17 5 32 4 39 -3 6 -6 13 -9 15 -6 3 2 -12 15 -32 28 -30 20 -34 21 -22 5
14 -18 14 -18 -2 -5 -10 7 -15 18 -12 23 9 15 69 1 152 -35z"/>
<path d="M750 1380 c0 -5 10 -10 23 -10 18 0 19 2 7 10 -19 13 -30 13 -30 0z"/>
<path d="M835 1351 c-3 -5 -1 -12 3 -15 5 -3 8 -19 7 -36 -1 -17 5 -36 14 -43
12 -10 13 -9 6 3 -5 8 -10 29 -11 45 -1 17 -3 32 -4 35 -1 3 -2 8 -1 13 1 10
-7 9 -14 -2z"/>
<path d="M1552 1320 c-6 -10 -8 -21 -3 -24 5 -3 11 4 14 16 8 29 4 32 -11 8z"/>
<path d="M934 1315 c1 -8 7 -20 14 -27 8 -8 9 -5 5 11 -6 25 -22 38 -19 16z"/>
<path d="M1509 1325 c-1 -3 -2 -9 -3 -14 0 -5 -4 -13 -8 -17 -5 -4 -8 -12 -8
-18 1 -13 23 23 26 42 2 11 -5 18 -7 7z"/>
<path d="M778 1303 c7 -3 16 -2 19 1 4 3 -2 6 -13 5 -11 0 -14 -3 -6 -6z"/>
<path d="M1436 1291 c-4 -5 -2 -12 3 -15 5 -4 12 -2 15 3 4 5 2 12 -3 15 -5 4
-12 2 -15 -3z"/>
<path d="M970 1259 c0 -5 5 -7 10 -4 6 3 10 8 10 11 0 2 -4 4 -10 4 -5 0 -10
-5 -10 -11z"/>
<path d="M1415 1250 c3 -5 8 -10 11 -10 2 0 4 5 4 10 0 6 -5 10 -11 10 -5 0
-7 -4 -4 -10z"/>
<path d="M798 1233 c6 -2 18 -2 25 0 6 3 1 5 -13 5 -14 0 -19 -2 -12 -5z"/>
<path d="M1350 1210 c-9 -6 -10 -10 -3 -10 6 0 15 5 18 10 8 12 4 12 -15 0z"/>
<path d="M1188 1193 c7 -3 16 -2 19 1 4 3 -2 6 -13 5 -11 0 -14 -3 -6 -6z"/>
<path d="M1228 1165 c2 -14 8 -28 13 -31 15 -9 10 33 -5 45 -11 9 -12 6 -8
-14z"/>
<path d="M1570 1186 c0 -2 8 -10 18 -17 15 -13 16 -12 3 4 -13 16 -21 21 -21
13z"/>
<path d="M1170 1158 c0 -4 4 -8 9 -8 6 0 12 4 15 8 3 5 -1 9 -9 9 -8 0 -15 -4
-15 -9z"/>
<path d="M1098 1135 c2 -14 11 -25 19 -25 10 0 11 4 3 19 -16 30 -28 33 -22 6z"/>
<path d="M1150 1129 c0 -5 5 -7 10 -4 6 3 10 8 10 11 0 2 -4 4 -10 4 -5 0 -10
-5 -10 -11z"/>
<path d="M1395 1120 c-3 -5 -1 -10 4 -10 6 0 11 5 11 10 0 6 -2 10 -4 10 -3 0
-8 -4 -11 -10z"/>
<path d="M1479 1116 c9 -11 9 -15 -1 -19 -8 -4 -7 -6 5 -6 19 -1 20 0 11 23
-3 9 -11 16 -16 16 -6 0 -6 -6 1 -14z"/>
<path d="M1515 1120 c-3 -5 1 -10 10 -10 9 0 13 5 10 10 -3 6 -8 10 -10 10 -2
0 -7 -4 -10 -10z"/>
<path d="M1278 1102 c-4 -16 0 -29 15 -45 12 -13 17 -16 10 -7 -6 8 -13 29
-15 45 -3 28 -4 28 -10 7z"/>
<path d="M1124 1075 c-4 -11 -10 -24 -12 -30 -3 -5 2 -4 11 4 13 11 17 11 17
1 0 -8 2 -11 5 -8 3 3 1 16 -4 29 -9 23 -9 23 -17 4z"/>
<path d="M1415 1080 c3 -5 8 -10 11 -10 2 0 4 5 4 10 0 6 -5 10 -11 10 -5 0
-7 -4 -4 -10z"/>
<path d="M1058 1043 c7 -3 16 -2 19 1 4 3 -2 6 -13 5 -11 0 -14 -3 -6 -6z"/>
<path d="M1120 1000 c0 -5 5 -10 11 -10 5 0 7 5 4 10 -3 6 -8 10 -11 10 -2 0
-4 -4 -4 -10z"/>
<path d="M1166 914 c-23 -16 -15 -60 14 -69 26 -8 60 11 60 34 0 34 -46 56
-74 35z m44 -35 c0 -10 -7 -19 -15 -19 -15 0 -21 31 -9 43 11 10 24 -3 24 -24z"/>
<path d="M1317 899 c7 -7 15 -10 18 -7 3 3 -2 9 -12 12 -14 6 -15 5 -6 -5z"/>
</g>
</svg>
